name processed_emg_signals
nRows=99
nColumns=7
 
endheader
time	LGLTMED	LRF	LADDLONG	LST	LTA	LGM
1.927	0.1156213131185049	0.0725289510873745	0.0863281444513092	0.0235045388111055	0.1822342771652457	0.1451084938661354
1.928	0.1163027211690263	0.0712462133533592	0.0859775056831313	0.0234997450523604	0.1826148592907714	0.1466889585516016
1.929	0.1169561134630875	0.069985265025417	0.0856265518921512	0.0234939218750617	0.1829782166106241	0.1482664276857449
1.93	0.1175802343842709	0.0687473509055618	0.0852757265635279	0.023487090196351	0.1833243611506645	0.1498396686998898
1.931	0.1181738641114693	0.0675337010189206	0.0849254774857988	0.0234792740164264	0.1836533308643015	0.1514074706330049
1.932	0.1187358210669958	0.0663455295841096	0.0845762560582457	0.0234705003170807	0.1839651898313188	0.1529686443220295
1.933	0.119264964279975	0.0651840340031098	0.0842285165846919	0.0234607989560629	0.184260028374398	0.1545220224867133
1.934	0.1197601956558429	0.0640503938710072	0.0838827155560816	0.0234502025575505	0.1845379630942484	0.1560664597137766
1.935	0.1202204621429768	0.0629457700059254	0.0835393109242742	0.0234387463989768	0.1847991368251867	0.1576008323465546
1.936	0.1206447577877829	0.0618713034994343	0.083198761369608	0.0234264682944806	0.1850437185136466	0.1591240382874569
1.937	0.1210321256700509	0.0608281147876714	0.0828615255647334	0.0234134084751896	0.1852719030224986	0.1606349967213538
1.938	0.1213816597111568	0.0598173027434852	0.0825280614371786	0.0233996094665968	0.185483910864288	0.1621326477684556
1.939	0.1216925063486049	0.0588399437898111	0.0821988254329823	0.0233851159631849	0.1856799878666457	0.1636159520754336
1.94	0.1219638660713208	0.0578970910345177	0.0818742717836006	0.0233699747005322	0.1858604047732523	0.165083890353441
1.941	0.122194994811235	0.0569897734269384	0.0815548517781589	0.0233542343250316	0.1860254567836707	0.1665354628714485
1.942	0.1223852051878903	0.0561189949362631	0.0812410130430251	0.02333794526142	0.1861754630353957	0.1679696889128513
1.943	0.1225338676041208	0.0552857337520097	0.0809331988305004	0.0233211595782442	0.1863107660313001	0.1693856062028463
1.944	0.1226404111920203	0.0544909415067388	0.0806318473183304	0.0233039308514239	0.1864317310154909	0.1707822703135154
1.945	0.1227043246095322	0.0537355425211739	0.0803373909215667	0.0232863140260022	0.1865387453002858	0.1721587540530877
1.946	0.1227251566891405	0.0530204330717689	0.0800502556182236	0.0232683652762083	0.1866322175466098	0.1735141468452693
1.947	0.1227025169412729	0.0523464806806779	0.0797708602900192	0.0232501418638925	0.1867125769998616	0.1748475541039765
1.948	0.1226360759159453	0.0517145234279345	0.0794996160794338	0.023231701995443	0.1867802726830364	0.1761580966082539
1.949	0.1225255654270111	0.0511253692855081	0.0792369257641621	0.0232131046772952	0.1868357725487303	0.1774449098815586
1.95	0.1223707786440055	0.0505797954727883	0.0789831831499682	0.0231944095701466	0.1868795625914706	0.1787071435790977
1.951	0.1221715700569615	0.0500785478330152	0.0787387724827478	0.0231756768420238	0.1869121459218714	0.1799439608865067
1.952	0.1219278553198011	0.0496223402300891	0.0785040678805344	0.0231569670203817	0.1869340418041649	0.1811545379327869
1.953	0.1216396109779311	0.049211853965301	0.0782794327860283	0.0231383408434025	0.1869457846589045	0.1823380632201541
1.954	0.1213068740856276	0.0488477372135485	0.0780652194401674	0.0231198591107482	0.1869479230328255	0.1834937370732709
1.955	0.1209297417186268	0.0485306044787563	0.0778617683772864	0.0231015825340457	0.186941018538018	0.1846207711101912
1.956	0.1205083703871482	0.0482610360682663	0.077669407942386	0.0230835715874495	0.1869256447627692	0.1857183877374534
1.957	0.1200429753542184	0.0480395775860637	0.07748845383116	0.0230658863586851	0.1869023861564926	0.1867858196720476
1.958	0.1195338298638547	0.0478667394447305	0.0773192086533703	0.0230485864009793	0.1868718368912586	0.187822309493568
1.959	0.1189812642832418	0.0477429963961337	0.0771619615201699	0.0230317305862746	0.1868345997024688	0.1888271092303168
1.96	0.1183856651626999	0.0476687870809567	0.0770169876558597	0.0230153769600855	0.1867912847113413	0.1897994799835733
1.961	0.1177474742168386	0.0476445135973038	0.0768845480344038	0.0229995825982881	0.1867425082319914	0.1907386915943759
1.962	0.1170671872300062	0.0476705410887232	0.0767648890408973	0.0229844034661154	0.1866888915660814	0.1916440223573241
1.963	0.1163453528888544	0.0477471973520501	0.0766582421579776	0.0229698942795529	0.1866310597880918	0.192514758785861
1.964	0.1155825715446089	0.0478747724654719	0.0765648236769983	0.0229561083693177	0.1865696405242663	0.19335019543336
1.965	0.1147794939074069	0.0480535184371742	0.076484834433673	0.0229430975475372	0.1865052627282347	0.1941496347740252
1.966	0.1139368196748383	0.0482836488747993	0.0764184595678047	0.0229309119772556	0.1864385554563249	0.1949123871472478
1.967	0.1130552960965035	0.048565338675945	0.0763658683067178	0.0229196000448748	0.1863701466454926	0.1956377707685222
1.968	0.1121357164761359	0.048898723739803	0.0763272137720571	0.022909208235625	0.186300661896781	0.196325111809447
1.969	0.1111789186126659	0.0492839007001527	0.0763026328096826	0.022899781012231	0.1862307232671035	0.1969737445486874
1.97	0.1101857831815953	0.0497209266798848	0.0762922458424285	0.0228913606969332	0.1861609480719946	0.1975830115951713
1.971	0.1091572320581221	0.0502098190673995	0.0762961567455527	0.0228839873570734	0.1860919477017517	0.1981522641841613
1.972	0.1080942265837231	0.0507505553152732	0.0763144527448046	0.0228776986944614	0.1860243264533095	0.1986808625463305
1.973	0.1069977657782201	0.0513430727617283	0.0763472043371118	0.0228725299387722	0.1859586803800793	0.199168176349374
1.974	0.1058688844998347	0.0519872684755956	0.076394465233913	0.0228685137452064	0.1858955961621127	0.1996135852111826
1.975	0.1047086515562235	0.0526829991255901	0.0764562723271757	0.0228656800966718	0.1858356499988988	0.2000164792830558
1.976	0.1035181677700109	0.0534300808748744	0.0765326456781126	0.0228640562107311	0.1857794065270207	0.2003762599009199
1.977	0.1022985640028537	0.0542282893020119	0.0766235885286229	0.022863666451572	0.1857274177647792	0.2006923403020604
1.978	0.1010509991425858	0.0550773593493871	0.0767290873355261	0.0228645322472423	0.1856802220857948	0.2009641464044727
1.979	0.0997766580583325	0.0559769853001419	0.0768491118276305	0.0228666720123486	0.1856383432234702	0.201191117645666
1.98	0.0984767495287905	0.0569268207845277	0.0769836150858074	0.0228701010764211	0.1856022893081839	0.2013727078774705
1.981	0.0971525041491134	0.0579264788163871	0.0771325336461706	0.0228748316180909	0.1855725519389258	0.2015083863132303
1.982	0.0958051722219696	0.058975531860301	0.07729578762647	0.0228808726052299	0.1855496052910377	0.2015976385235987
1.983	0.0944360216384622	0.0600735119297718	0.0774732808756649	0.0228882297411491	0.1855339052616382	0.2016399674768983
1.984	0.093046335754535	0.0612199107166059	0.0776649011465035	0.0228969054169246	0.1855258886542905	0.2016348946197155
1.985	0.0916374112684779	0.0624141797516126	0.0778705202907313	0.0229068986698902	0.1855259724043452	0.2015819609930433
1.986	0.0902105561050259	0.0636557305966423	0.0780899944763249	0.0229182051482663	0.1855345528462841	0.2014807283791229
1.987	0.0887670873113525	0.0649439350680102	0.0783231644259778	0.0229308170819285	0.1855520050244334	0.2013307804741008
1.988	0.0873083289700439	0.0662781254913783	0.0785698556758711	0.0229447232592415	0.1855786820484487	0.2011317240818229
1.989	0.0858356101338353	0.067657594988239	0.0788298788536395	0.0229599090099155	0.1856149144950483	0.2008831903243534
1.99	0.0843502627866341	0.0690815977942851	0.0791030299743024	0.0229763561938646	0.1856610098572442	0.2005848358652488
1.991	0.0828536198350191	0.0705493496100203	0.0793890907528588	0.0229940431960243	0.1857172520419993	0.2002363441421787
1.992	0.0813470131341021	0.0720600279841639	0.0796878289320806	0.0230129449271684	0.1857839009169345	0.1998374266063748
1.993	0.079831771551379	0.0736127727303787	0.0799989986239865	0.0230330328306935	0.1858611919063494	0.1993878239675825
1.994	0.0783092190718381	0.0752066863779638	0.0803223406633532	0.0230542748953483	0.1859493356366703	0.1988873074443792
1.995	0.076780672947364	0.076840834657014	0.0806575829716576	0.0230766356739085	0.1860485176313863	0.1983356800206863
1.996	0.0752474418931708	0.0785142470186447	0.081004440929941	0.0231000763077701	0.1861588980557529	0.1977327777097258
1.997	0.0737108243337008	0.080225917190794	0.0813626177591995	0.0231245545575183	0.1862806115119664	0.1970784708267343
1.998	0.0721721067001922	0.0819748037701897	0.0817318049069908	0.0231500248394827	0.1864137668859447	0.1963726652714405
1.999	0.0706325617818464	0.0837598308511078	0.0821116824389633	0.0231764382683025	0.1865584472471417	0.1956153038208516
2.0	0.0690934471323325	0.0855798886915536	0.0825019194340437	0.0232037427054963	0.1867147098029687	0.1948063674323198
2.001	0.0675560035331601	0.0874338344175546	0.0829021743820206	0.0232318828139875	0.1868825859093041	0.1939458765562644
2.0020000000000002	0.0660214535152945	0.0893204927662368	0.083312095582261	0.0232608001185429	0.1870620811383251	0.1930338924571862
2.003	0.0644909999402687	0.0912386568683611	0.0837313215423296	0.0232904330720723	0.1872531754045964	0.1920705185410554
2.004	0.0629658246419013	0.0931870890708659	0.0841594813753448	0.0233207171276818	0.187455823149921	0.1910559016864697
2.005	0.0614470871296596	0.0951645217998593	0.0845961951950642	0.0233515848164023	0.1876699535870068	0.1899902335765033
2.0060000000000002	0.059935923354577	0.097169658464261	0.0850410745079106	0.0233829658304715	0.1878954710014577	0.1888737520277786
2.007	0.0584334445385016	0.0992011744000555	0.0854937226013072	0.0234147871120743	0.1881322551110345	0.1877067423128844
2.008	0.0569407360673201	0.101257717854851	0.0859537349279227	0.0234469729474247	0.1883801614806546	0.1864895384719113
2.009	0.0554588564486527	0.1033379110121879	0.0864206994856336	0.0234794450661009	0.1886390219911544	0.1852225246084836
2.0100000000000002	0.0539888363343214	0.1054403510548187	0.0868941971931842	0.0235121227454779	0.1889086453595497	0.1839061361652933
2.011	0.0525316776077757	0.1075636112659878	0.0873738022617812	0.0235449229200913	0.1891888177081919	0.1825408611738148
2.012	0.0510883525365015	0.1097062421676345	0.0878590825630845	0.0235777602956919	0.1894793031800802	0.1811272414727378
2.013	0.0496598029893267	0.111866772694355	0.0883495999944182	0.0236105474677198	0.1897798445974671	0.1796658738895369
2.0140000000000002	0.0482469397184115	0.1140437114019954	0.0888449108421817	0.0236431950438595	0.1900901641609134	0.1781574113797112
2.015	0.046850641705541	0.1162355477096883	0.0893445661446742	0.0236756117703299	0.1904099641858406	0.1766025641182735
2.016	0.0454717555722621	0.1184407531741765	0.0898481120555889	0.0237077046615187	0.1907389278735768	0.1750021005381106
2.017	0.0441110950531865	0.1206577827951536	0.0903550902094928	0.0237393791325969	0.1910767201137849	0.1733568483096803
2.0180000000000002	0.0427694405317233	0.1228850763502806	0.0908650380906417	0.023770539134763	0.1914229883151519	0.1716676952562931
2.019	0.0414475386373382	0.1251210597584338	0.0913774894064194	0.0238010872928506	0.1917773632613076	0.1699355901990514
2.02	0.0401461019033454	0.1273641464697978	0.0918919744666501	0.0238309250450655	0.1921394599890896	0.1681615437255474
2.021	0.0388658084841727	0.1296127388815199	0.092408020569888	0.0238599527847599	0.1925088786863201	0.1663466288767052
2.0220000000000002	0.0376073019309705	0.1318652297776742	0.0929251523976632	0.0238880700041888	0.1928852056061446	0.1644919817468299
2.023	0.0363711910243569	0.1341200037922874	0.0934428924174913	0.0239151754402861	0.1932680139948861	0.1625988019928449
2.024	0.0351580496630367	0.1363754388940843	0.0939607612953476	0.0239411672225151	0.1936568650303163	0.1606683532498524
2.025	0.033968416806953	0.1386299078915879	0.0944782783181585	0.0239659430228731	0.1940513087674254	0.1587019634513252
